{"title":"Somewhere.2010.480p.BRRip.x264.Feel-Free","uid":6180742,"size":1367955252,"categoryP":"video","categoryS":"movies","magnet":"?xt=urn:btih:d582c16f9a68b94bde62961880e7e5001de04283&amp;dn=Somewhere.2010.480p.BRRip.x264.Feel-Free&amp;tr=udp%3A%2F%2Ftracker.openbittorrent.com%3A80&amp;tr=udp%3A%2F%2Fopen.demonii.com%3A1337&amp;tr=udp%3A%2F%2Ftracker.coppersurfer.tk%3A6969&amp;tr=udp%3A%2F%2Fexodus.desync.com%3A6969","seeders":0,"leechers":0,"uploader":"hiest","files":-1,"time":1297902758,"description":"Genre:Drama\nLanguage:English\nIMDb:http://www.imdb.com/title/tt1421051/\nSource:BluRay.Rus.Eng.HDCLUB\n\nFormat : MPEG-4\nFormat profile : Base Media\nCodec ID : isom\nFile size : 1.27 GiB\nDuration : 1h 37mn\nOverall bit rate : 1 863 Kbps\nMovie name : Somewhere.2010.480p.BRRip.x264.Feel-Free\n\n\nVideo\nFormat settings, CABAC : Yes\nFormat settings, ReFrames : 4 frames\nCodec ID : avc1\nCodec ID/Info : Advanced Video Coding\nDuration : 1h 37mn\nBit rate mode : Variable\nBit rate : 1 500 Kbps\nWidth : 720 pixels\nHeight : 388 pixels\nDisplay aspect ratio : 1.856\nFrame rate mode : Constant\nFrame rate : 23.976 fps\nColor space : YUV\nChroma subsampling : 4:2:0\nBit depth : 8 bits\nScan type : Progressive\nBits/(Pixel*Frame) : 0.224\nStream size : 1.01 GiB (79%)\nWriting library : x264\n\nAudio\nID : 2\nFormat : AAC\nFormat/Info : Advanced Audio Codec\nFormat version : Version 4\nFormat profile : LC\nCodec ID : 40\nDuration : 1h 37mn\nBit rate mode : Variable\nBit rate : 384 Kbps\nChannel(s) : 6 channels\nChannel positions : Front: L C R, Side: L R, LFE\nSampling rate : 48.0 KHz\nStream size : 268 MiB (21%)\n\n\nPlot:\nA hard-living Hollywood actor re-examines his life after his 11-year-old daughter surprises him with a visit","torrent":{"xt":"urn:btih:d582c16f9a68b94bde62961880e7e5001de04283","amp;dn":"Somewhere.2010.480p.BRRip.x264.Feel-Free","amp;tr":["udp%3A%2F%2Ftracker.openbittorrent.com%3A80","udp%3A%2F%2Fopen.demonii.com%3A1337","udp%3A%2F%2Ftracker.coppersurfer.tk%3A6969","udp%3A%2F%2Fexodus.desync.com%3A6969"],"infoHash":"d582c16f9a68b94bde62961880e7e5001de04283","infoHashBuffer":{"type":"Buffer","data":[213,130,193,111,154,104,185,75,222,98,150,24,128,231,229,0,29,224,66,131]},"announce":[],"urlList":[]}}